<?xml version="1.0" encoding="UTF-8" standalone="no"?>
<!DOCTYPE svg PUBLIC "-//W3C//DTD SVG 1.1//EN"
 "http://www.w3.org/Graphics/SVG/1.1/DTD/svg11.dtd">
<!-- Generated by graphviz version 2.43.0 (0)
 -->
<!-- Title: include/ClangTidyWarnings.h Pages: 1 -->
<svg width="442pt" height="84pt"
 viewBox="0.00 0.00 442.00 84.00" xmlns="http://www.w3.org/2000/svg" xmlns:xlink="http://www.w3.org/1999/xlink">
<g id="graph0" class="graph" transform="scale(1 1) rotate(0) translate(4 80)">
<title>include/ClangTidyWarnings.h</title>
<!-- Node1 -->
<g id="node1" class="node">
<title>Node1</title>
<g id="a_node1"><a xlink:title=" ">
<polygon fill="#bfbfbf" stroke="black" points="126,-56.5 126,-75.5 284,-75.5 284,-56.5 126,-56.5"/>
<text text-anchor="middle" x="205" y="-63.5" font-family="Helvetica,sans-Serif" font-size="10.00">include/ClangTidyWarnings.h</text>
</a>
</g>
</g>
<!-- Node2 -->
<g id="node2" class="node">
<title>Node2</title>
<g id="a_node2"><a xlink:href="ClangTidyWarnings_8cpp.html" target="_top" xlink:title=" ">
<polygon fill="none" stroke="black" points="0,-0.5 0,-19.5 148,-19.5 148,-0.5 0,-0.5"/>
<text text-anchor="middle" x="74" y="-7.5" font-family="Helvetica,sans-Serif" font-size="10.00">src/ClangTidyWarnings.cpp</text>
</a>
</g>
</g>
<!-- Node1&#45;&gt;Node2 -->
<g id="edge1" class="edge">
<title>Node1&#45;&gt;Node2</title>
<path fill="none" stroke="midnightblue" d="M174.68,-52.5C150.12,-42.38 116.18,-28.39 94.66,-19.52"/>
<polygon fill="midnightblue" stroke="midnightblue" points="173.66,-55.87 184.24,-56.44 176.33,-49.4 173.66,-55.87"/>
</g>
<!-- Node3 -->
<g id="node3" class="node">
<title>Node3</title>
<g id="a_node3"><a xlink:href="Main_8cpp.html" target="_top" xlink:title=" ">
<polygon fill="none" stroke="black" points="166,-0.5 166,-19.5 244,-19.5 244,-0.5 166,-0.5"/>
<text text-anchor="middle" x="205" y="-7.5" font-family="Helvetica,sans-Serif" font-size="10.00">src/Main.cpp</text>
</a>
</g>
</g>
<!-- Node1&#45;&gt;Node3 -->
<g id="edge2" class="edge">
<title>Node1&#45;&gt;Node3</title>
<path fill="none" stroke="midnightblue" d="M205,-45.8C205,-36.91 205,-26.78 205,-19.75"/>
<polygon fill="midnightblue" stroke="midnightblue" points="201.5,-46.08 205,-56.08 208.5,-46.08 201.5,-46.08"/>
</g>
<!-- Node4 -->
<g id="node4" class="node">
<title>Node4</title>
<g id="a_node4"><a xlink:href="ClangTidyWarningsTest_8cpp.html" target="_top" xlink:title=" ">
<polygon fill="none" stroke="black" points="262,-0.5 262,-19.5 434,-19.5 434,-0.5 262,-0.5"/>
<text text-anchor="middle" x="348" y="-7.5" font-family="Helvetica,sans-Serif" font-size="10.00">test/ClangTidyWarningsTest.cpp</text>
</a>
</g>
</g>
<!-- Node1&#45;&gt;Node4 -->
<g id="edge3" class="edge">
<title>Node1&#45;&gt;Node4</title>
<path fill="none" stroke="midnightblue" d="M237.03,-52.91C263.91,-42.75 301.64,-28.51 325.45,-19.52"/>
<polygon fill="midnightblue" stroke="midnightblue" points="235.78,-49.64 227.66,-56.44 238.25,-56.19 235.78,-49.64"/>
</g>
</g>
</svg>
