<?xml version="1.0" encoding="UTF-8" standalone="no"?>
<!DOCTYPE svg PUBLIC "-//W3C//DTD SVG 1.1//EN"
 "http://www.w3.org/Graphics/SVG/1.1/DTD/svg11.dtd">
<!-- Generated by graphviz version 2.43.0 (0)
 -->
<!-- Title: ClangTidyWarningsTest Pages: 1 -->
<svg width="212pt" height="95pt"
 viewBox="0.00 0.00 212.00 95.00" xmlns="http://www.w3.org/2000/svg" xmlns:xlink="http://www.w3.org/1999/xlink">
<g id="graph0" class="graph" transform="scale(1 1) rotate(0) translate(4 91)">
<title>ClangTidyWarningsTest</title>
<!-- Node1 -->
<g id="node1" class="node">
<title>Node1</title>
<g id="a_node1"><a xlink:title=" ">
<polygon fill="#bfbfbf" stroke="black" points="28,-0.5 28,-19.5 158,-19.5 158,-0.5 28,-0.5"/>
<text text-anchor="middle" x="93" y="-7.5" font-family="Helvetica,sans-Serif" font-size="10.00">ClangTidyWarningsTest</text>
</a>
</g>
</g>
<!-- Node2 -->
<g id="node2" class="node">
<title>Node2</title>
<g id="a_node2"><a xlink:title=" ">
<polygon fill="none" stroke="#bfbfbf" points="0,-67.5 0,-86.5 76,-86.5 76,-67.5 0,-67.5"/>
<text text-anchor="middle" x="38" y="-74.5" font-family="Helvetica,sans-Serif" font-size="10.00">testing::Test</text>
</a>
</g>
</g>
<!-- Node2&#45;&gt;Node1 -->
<g id="edge1" class="edge">
<title>Node2&#45;&gt;Node1</title>
<path fill="none" stroke="midnightblue" d="M52.16,-59.27C62.88,-46.6 77.18,-29.7 85.7,-19.63"/>
<polygon fill="midnightblue" stroke="midnightblue" points="49.21,-57.34 45.42,-67.23 54.55,-61.86 49.21,-57.34"/>
</g>
<!-- Node3 -->
<g id="node3" class="node">
<title>Node3</title>
<g id="a_node3"><a xlink:href="classClangTidyWarnings.html" target="_top" xlink:title=" ">
<polygon fill="none" stroke="black" points="94,-67.5 94,-86.5 204,-86.5 204,-67.5 94,-67.5"/>
<text text-anchor="middle" x="149" y="-74.5" font-family="Helvetica,sans-Serif" font-size="10.00">ClangTidyWarnings</text>
</a>
</g>
</g>
<!-- Node3&#45;&gt;Node1 -->
<g id="edge2" class="edge">
<title>Node3&#45;&gt;Node1</title>
<path fill="none" stroke="#9a32cd" stroke-dasharray="5,2" d="M134.9,-59.63C123.95,-46.92 109.2,-29.8 100.43,-19.63"/>
<polygon fill="#9a32cd" stroke="#9a32cd" points="132.27,-61.94 141.45,-67.23 137.57,-57.37 132.27,-61.94"/>
<text text-anchor="middle" x="147" y="-41" font-family="Helvetica,sans-Serif" font-size="10.00"> example</text>
</g>
</g>
</svg>
