<?xml version="1.0" encoding="UTF-8" standalone="no"?>
<!DOCTYPE svg PUBLIC "-//W3C//DTD SVG 1.1//EN"
 "http://www.w3.org/Graphics/SVG/1.1/DTD/svg11.dtd">
<!-- Generated by graphviz version 2.43.0 (0)
 -->
<!-- Title: clang&#45;tidy&#45;cache.ClangTidyCacheOpts.__init__ Pages: 1 -->
<svg width="358pt" height="100pt"
 viewBox="0.00 0.00 358.00 99.50" xmlns="http://www.w3.org/2000/svg" xmlns:xlink="http://www.w3.org/1999/xlink">
<g id="graph0" class="graph" transform="scale(1 1) rotate(0) translate(4 95.5)">
<title>clang&#45;tidy&#45;cache.ClangTidyCacheOpts.__init__</title>
<!-- Node1 -->
<g id="node1" class="node">
<title>Node1</title>
<g id="a_node1"><a xlink:title=" ">
<polygon fill="#bfbfbf" stroke="black" points="0,-33 0,-63 149,-63 149,-33 0,-33"/>
<text text-anchor="start" x="8" y="-51" font-family="Helvetica,sans-Serif" font-size="10.00">clang&#45;tidy&#45;cache.ClangTidy</text>
<text text-anchor="middle" x="74.5" y="-40" font-family="Helvetica,sans-Serif" font-size="10.00">CacheOpts.__init__</text>
</a>
</g>
</g>
<!-- Node2 -->
<g id="node2" class="node">
<title>Node2</title>
<g id="a_node2"><a xlink:href="classclang-tidy-cache_1_1ClangTidyCacheOpts.html#a11baed27d8acb3038af3b0fa4b3812f3" target="_top" xlink:title=" ">
<polygon fill="none" stroke="black" points="185,-61 185,-91 350,-91 350,-61 185,-61"/>
<text text-anchor="start" x="193" y="-79" font-family="Helvetica,sans-Serif" font-size="10.00">clang&#45;tidy&#45;cache.ClangTidy</text>
<text text-anchor="middle" x="267.5" y="-68" font-family="Helvetica,sans-Serif" font-size="10.00">CacheOpts._compiler_args_for</text>
</a>
</g>
</g>
<!-- Node1&#45;&gt;Node2 -->
<g id="edge1" class="edge">
<title>Node1&#45;&gt;Node2</title>
<path fill="none" stroke="midnightblue" d="M149.07,-58.79C157.46,-60.01 166.08,-61.28 174.66,-62.54"/>
<polygon fill="midnightblue" stroke="midnightblue" points="174.3,-66.02 184.7,-64.01 175.32,-59.1 174.3,-66.02"/>
</g>
<!-- Node3 -->
<g id="node3" class="node">
<title>Node3</title>
<g id="a_node3"><a xlink:href="classclang-tidy-cache_1_1ClangTidyCacheOpts.html#a79f617949ffb47697f7b019091e58a49" target="_top" xlink:title=" ">
<polygon fill="none" stroke="black" points="193,-0.5 193,-41.5 342,-41.5 342,-0.5 193,-0.5"/>
<text text-anchor="start" x="201" y="-29.5" font-family="Helvetica,sans-Serif" font-size="10.00">clang&#45;tidy&#45;cache.ClangTidy</text>
<text text-anchor="start" x="201" y="-18.5" font-family="Helvetica,sans-Serif" font-size="10.00">CacheOpts._load_compile</text>
<text text-anchor="middle" x="267.5" y="-7.5" font-family="Helvetica,sans-Serif" font-size="10.00">_command_db</text>
</a>
</g>
</g>
<!-- Node1&#45;&gt;Node3 -->
<g id="edge2" class="edge">
<title>Node1&#45;&gt;Node3</title>
<path fill="none" stroke="midnightblue" d="M149.07,-37.6C160.1,-36.04 171.53,-34.43 182.75,-32.84"/>
<polygon fill="midnightblue" stroke="midnightblue" points="183.55,-36.26 192.97,-31.39 182.57,-29.33 183.55,-36.26"/>
</g>
</g>
</svg>
