<?xml version="1.0" encoding="UTF-8" standalone="no"?>
<!DOCTYPE svg PUBLIC "-//W3C//DTD SVG 1.1//EN"
 "http://www.w3.org/Graphics/SVG/1.1/DTD/svg11.dtd">
<!-- Generated by graphviz version 2.43.0 (0)
 -->
<!-- Title: MyClassMockTest Pages: 1 -->
<svg width="186pt" height="152pt"
 viewBox="0.00 0.00 186.00 152.00" xmlns="http://www.w3.org/2000/svg" xmlns:xlink="http://www.w3.org/1999/xlink">
<g id="graph0" class="graph" transform="scale(1 1) rotate(0) translate(4 148)">
<title>MyClassMockTest</title>
<!-- Node1 -->
<g id="node1" class="node">
<title>Node1</title>
<g id="a_node1"><a xlink:title=" ">
<polygon fill="#bfbfbf" stroke="black" points="18,-0.5 18,-19.5 122,-19.5 122,-0.5 18,-0.5"/>
<text text-anchor="middle" x="70" y="-7.5" font-family="Helvetica,sans-Serif" font-size="10.00">MyClassMockTest</text>
</a>
</g>
</g>
<!-- Node2 -->
<g id="node2" class="node">
<title>Node2</title>
<g id="a_node2"><a xlink:title=" ">
<polygon fill="none" stroke="#bfbfbf" points="0,-67.5 0,-86.5 76,-86.5 76,-67.5 0,-67.5"/>
<text text-anchor="middle" x="38" y="-74.5" font-family="Helvetica,sans-Serif" font-size="10.00">testing::Test</text>
</a>
</g>
</g>
<!-- Node2&#45;&gt;Node1 -->
<g id="edge1" class="edge">
<title>Node2&#45;&gt;Node1</title>
<path fill="none" stroke="midnightblue" d="M46.78,-58.16C52.95,-45.63 60.94,-29.41 65.75,-19.63"/>
<polygon fill="midnightblue" stroke="midnightblue" points="43.59,-56.72 42.32,-67.23 49.87,-59.81 43.59,-56.72"/>
</g>
<!-- Node3 -->
<g id="node3" class="node">
<title>Node3</title>
<g id="a_node3"><a xlink:href="classMockMyClass.html" target="_top" xlink:title=" ">
<polygon fill="none" stroke="black" points="94,-67.5 94,-86.5 178,-86.5 178,-67.5 94,-67.5"/>
<text text-anchor="middle" x="136" y="-74.5" font-family="Helvetica,sans-Serif" font-size="10.00">MockMyClass</text>
</a>
</g>
</g>
<!-- Node3&#45;&gt;Node1 -->
<g id="edge2" class="edge">
<title>Node3&#45;&gt;Node1</title>
<path fill="none" stroke="#9a32cd" stroke-dasharray="5,2" d="M119.75,-60C106.81,-47.25 89.19,-29.89 78.76,-19.63"/>
<polygon fill="#9a32cd" stroke="#9a32cd" points="117.52,-62.71 127.1,-67.23 122.43,-57.72 117.52,-62.71"/>
<text text-anchor="middle" x="142" y="-41" font-family="Helvetica,sans-Serif" font-size="10.00"> myMockClass</text>
</g>
<!-- Node4 -->
<g id="node4" class="node">
<title>Node4</title>
<g id="a_node4"><a xlink:href="classMyClass.html" target="_top" xlink:title=" ">
<polygon fill="none" stroke="black" points="107,-124.5 107,-143.5 165,-143.5 165,-124.5 107,-124.5"/>
<text text-anchor="middle" x="136" y="-131.5" font-family="Helvetica,sans-Serif" font-size="10.00">MyClass</text>
</a>
</g>
</g>
<!-- Node4&#45;&gt;Node3 -->
<g id="edge3" class="edge">
<title>Node4&#45;&gt;Node3</title>
<path fill="none" stroke="midnightblue" d="M136,-114.12C136,-104.82 136,-94.06 136,-86.71"/>
<polygon fill="midnightblue" stroke="midnightblue" points="132.5,-114.41 136,-124.41 139.5,-114.41 132.5,-114.41"/>
</g>
</g>
</svg>
