<?xml version="1.0" encoding="UTF-8" standalone="no"?>
<!DOCTYPE svg PUBLIC "-//W3C//DTD SVG 1.1//EN"
 "http://www.w3.org/Graphics/SVG/1.1/DTD/svg11.dtd">
<!-- Generated by graphviz version 2.43.0 (0)
 -->
<!-- Title: MyClassTest Pages: 1 -->
<svg width="160pt" height="95pt"
 viewBox="0.00 0.00 160.00 95.00" xmlns="http://www.w3.org/2000/svg" xmlns:xlink="http://www.w3.org/1999/xlink">
<g id="graph0" class="graph" transform="scale(1 1) rotate(0) translate(4 91)">
<title>MyClassTest</title>
<!-- Node1 -->
<g id="node1" class="node">
<title>Node1</title>
<g id="a_node1"><a xlink:title=" ">
<polygon fill="#bfbfbf" stroke="black" points="41.5,-0.5 41.5,-19.5 118.5,-19.5 118.5,-0.5 41.5,-0.5"/>
<text text-anchor="middle" x="80" y="-7.5" font-family="Helvetica,sans-Serif" font-size="10.00">MyClassTest</text>
</a>
</g>
</g>
<!-- Node2 -->
<g id="node2" class="node">
<title>Node2</title>
<g id="a_node2"><a xlink:title=" ">
<polygon fill="none" stroke="#bfbfbf" points="0,-67.5 0,-86.5 76,-86.5 76,-67.5 0,-67.5"/>
<text text-anchor="middle" x="38" y="-74.5" font-family="Helvetica,sans-Serif" font-size="10.00">testing::Test</text>
</a>
</g>
</g>
<!-- Node2&#45;&gt;Node1 -->
<g id="edge1" class="edge">
<title>Node2&#45;&gt;Node1</title>
<path fill="none" stroke="midnightblue" d="M49.29,-58.53C57.42,-45.95 68.04,-29.51 74.43,-19.63"/>
<polygon fill="midnightblue" stroke="midnightblue" points="46.15,-56.94 43.66,-67.23 52.03,-60.73 46.15,-56.94"/>
</g>
<!-- Node3 -->
<g id="node3" class="node">
<title>Node3</title>
<g id="a_node3"><a xlink:href="classMyClass.html" target="_top" xlink:title=" ">
<polygon fill="none" stroke="black" points="94,-67.5 94,-86.5 152,-86.5 152,-67.5 94,-67.5"/>
<text text-anchor="middle" x="123" y="-74.5" font-family="Helvetica,sans-Serif" font-size="10.00">MyClass</text>
</a>
</g>
</g>
<!-- Node3&#45;&gt;Node1 -->
<g id="edge2" class="edge">
<title>Node3&#45;&gt;Node1</title>
<path fill="none" stroke="#9a32cd" stroke-dasharray="5,2" d="M111.45,-58.53C103.12,-45.95 92.24,-29.51 85.71,-19.63"/>
<polygon fill="#9a32cd" stroke="#9a32cd" points="108.76,-60.82 117.2,-67.23 114.6,-56.96 108.76,-60.82"/>
<text text-anchor="middle" x="127" y="-41" font-family="Helvetica,sans-Serif" font-size="10.00"> myClass</text>
</g>
</g>
</svg>
