<?xml version="1.0" encoding="UTF-8" standalone="no"?>
<!DOCTYPE svg PUBLIC "-//W3C//DTD SVG 1.1//EN"
 "http://www.w3.org/Graphics/SVG/1.1/DTD/svg11.dtd">
<!-- Generated by graphviz version 2.43.0 (0)
 -->
<!-- Title: test/GeneratorTest.cpp Pages: 1 -->
<svg width="507pt" height="140pt"
 viewBox="0.00 0.00 506.50 140.00" xmlns="http://www.w3.org/2000/svg" xmlns:xlink="http://www.w3.org/1999/xlink">
<g id="graph0" class="graph" transform="scale(1 1) rotate(0) translate(4 136)">
<title>test/GeneratorTest.cpp</title>
<!-- Node1 -->
<g id="node1" class="node">
<title>Node1</title>
<g id="a_node1"><a xlink:title=" ">
<polygon fill="#bfbfbf" stroke="black" points="170.5,-112.5 170.5,-131.5 297.5,-131.5 297.5,-112.5 170.5,-112.5"/>
<text text-anchor="middle" x="234" y="-119.5" font-family="Helvetica,sans-Serif" font-size="10.00">test/GeneratorTest.cpp</text>
</a>
</g>
</g>
<!-- Node2 -->
<g id="node2" class="node">
<title>Node2</title>
<g id="a_node2"><a xlink:title=" ">
<polygon fill="none" stroke="#bfbfbf" points="0,-56.5 0,-75.5 78,-75.5 78,-56.5 0,-56.5"/>
<text text-anchor="middle" x="39" y="-63.5" font-family="Helvetica,sans-Serif" font-size="10.00">gtest/gtest.h</text>
</a>
</g>
</g>
<!-- Node1&#45;&gt;Node2 -->
<g id="edge1" class="edge">
<title>Node1&#45;&gt;Node2</title>
<path fill="none" stroke="midnightblue" d="M203.1,-112.44C169.73,-103.2 116.41,-88.44 79.65,-78.26"/>
<polygon fill="midnightblue" stroke="midnightblue" points="80.33,-74.81 69.75,-75.52 78.46,-81.56 80.33,-74.81"/>
</g>
<!-- Node3 -->
<g id="node3" class="node">
<title>Node3</title>
<g id="a_node3"><a xlink:title=" ">
<polygon fill="none" stroke="#bfbfbf" points="96,-56.5 96,-75.5 154,-75.5 154,-56.5 96,-56.5"/>
<text text-anchor="middle" x="125" y="-63.5" font-family="Helvetica,sans-Serif" font-size="10.00">memory</text>
</a>
</g>
</g>
<!-- Node1&#45;&gt;Node3 -->
<g id="edge2" class="edge">
<title>Node1&#45;&gt;Node3</title>
<path fill="none" stroke="midnightblue" d="M216.49,-112.32C198.93,-103.62 171.67,-90.12 151.47,-80.11"/>
<polygon fill="midnightblue" stroke="midnightblue" points="152.98,-76.96 142.47,-75.65 149.88,-83.23 152.98,-76.96"/>
</g>
<!-- Node4 -->
<g id="node4" class="node">
<title>Node4</title>
<g id="a_node4"><a xlink:title=" ">
<polygon fill="none" stroke="#bfbfbf" points="172,-56.5 172,-75.5 228,-75.5 228,-56.5 172,-56.5"/>
<text text-anchor="middle" x="200" y="-63.5" font-family="Helvetica,sans-Serif" font-size="10.00">numeric</text>
</a>
</g>
</g>
<!-- Node1&#45;&gt;Node4 -->
<g id="edge3" class="edge">
<title>Node1&#45;&gt;Node4</title>
<path fill="none" stroke="midnightblue" d="M228.39,-112.08C223.63,-104.53 216.68,-93.49 210.85,-84.23"/>
<polygon fill="midnightblue" stroke="midnightblue" points="213.8,-82.35 205.51,-75.75 207.88,-86.08 213.8,-82.35"/>
</g>
<!-- Node5 -->
<g id="node5" class="node">
<title>Node5</title>
<g id="a_node5"><a xlink:title=" ">
<polygon fill="none" stroke="#bfbfbf" points="246,-56.5 246,-75.5 290,-75.5 290,-56.5 246,-56.5"/>
<text text-anchor="middle" x="268" y="-63.5" font-family="Helvetica,sans-Serif" font-size="10.00">string</text>
</a>
</g>
</g>
<!-- Node1&#45;&gt;Node5 -->
<g id="edge4" class="edge">
<title>Node1&#45;&gt;Node5</title>
<path fill="none" stroke="midnightblue" d="M239.61,-112.08C244.37,-104.53 251.32,-93.49 257.15,-84.23"/>
<polygon fill="midnightblue" stroke="midnightblue" points="260.12,-86.08 262.49,-75.75 254.2,-82.35 260.12,-86.08"/>
</g>
<!-- Node6 -->
<g id="node6" class="node">
<title>Node6</title>
<g id="a_node6"><a xlink:title=" ">
<polygon fill="none" stroke="#bfbfbf" points="308.5,-56.5 308.5,-75.5 355.5,-75.5 355.5,-56.5 308.5,-56.5"/>
<text text-anchor="middle" x="332" y="-63.5" font-family="Helvetica,sans-Serif" font-size="10.00">vector</text>
</a>
</g>
</g>
<!-- Node1&#45;&gt;Node6 -->
<g id="edge5" class="edge">
<title>Node1&#45;&gt;Node6</title>
<path fill="none" stroke="midnightblue" d="M249.75,-112.32C265.32,-103.74 289.38,-90.49 307.46,-80.52"/>
<polygon fill="midnightblue" stroke="midnightblue" points="309.22,-83.55 316.29,-75.65 305.85,-77.42 309.22,-83.55"/>
</g>
<!-- Node7 -->
<g id="node7" class="node">
<title>Node7</title>
<g id="a_node7"><a xlink:href="Generator_8h.html" target="_top" xlink:title=" ">
<polygon fill="none" stroke="black" points="373.5,-56.5 373.5,-75.5 498.5,-75.5 498.5,-56.5 373.5,-56.5"/>
<text text-anchor="middle" x="436" y="-63.5" font-family="Helvetica,sans-Serif" font-size="10.00">Generator/Generator.h</text>
</a>
</g>
</g>
<!-- Node1&#45;&gt;Node7 -->
<g id="edge6" class="edge">
<title>Node1&#45;&gt;Node7</title>
<path fill="none" stroke="midnightblue" d="M266.01,-112.44C300.73,-103.16 356.29,-88.31 394.38,-78.13"/>
<polygon fill="midnightblue" stroke="midnightblue" points="395.39,-81.48 404.14,-75.52 393.58,-74.72 395.39,-81.48"/>
</g>
<!-- Node8 -->
<g id="node8" class="node">
<title>Node8</title>
<g id="a_node8"><a xlink:title=" ">
<polygon fill="none" stroke="#bfbfbf" points="408,-0.5 408,-19.5 464,-19.5 464,-0.5 408,-0.5"/>
<text text-anchor="middle" x="436" y="-7.5" font-family="Helvetica,sans-Serif" font-size="10.00">sstream</text>
</a>
</g>
</g>
<!-- Node7&#45;&gt;Node8 -->
<g id="edge7" class="edge">
<title>Node7&#45;&gt;Node8</title>
<path fill="none" stroke="midnightblue" d="M436,-56.08C436,-49.01 436,-38.86 436,-29.99"/>
<polygon fill="midnightblue" stroke="midnightblue" points="439.5,-29.75 436,-19.75 432.5,-29.75 439.5,-29.75"/>
</g>
</g>
</svg>
