<?xml version="1.0" encoding="UTF-8" standalone="no"?>
<!DOCTYPE svg PUBLIC "-//W3C//DTD SVG 1.1//EN"
 "http://www.w3.org/Graphics/SVG/1.1/DTD/svg11.dtd">
<!-- Generated by graphviz version 2.43.0 (0)
 -->
<!-- Title: Graphical Class Hierarchy Pages: 1 -->
<svg width="240pt" height="333pt"
 viewBox="0.00 0.00 240.00 333.00" xmlns="http://www.w3.org/2000/svg" xmlns:xlink="http://www.w3.org/1999/xlink">
<g id="graph0" class="graph" transform="scale(1 1) rotate(0) translate(4 329)">
<title>Graphical Class Hierarchy</title>
<!-- Node3 -->
<g id="node1" class="node">
<title>Node3</title>
<g id="a_node1"><a xlink:title=" ">
<polygon fill="none" stroke="#bfbfbf" points="0,-153 0,-172 47,-172 47,-153 0,-153"/>
<text text-anchor="middle" x="23.5" y="-160" font-family="Helvetica,sans-Serif" font-size="10.00">object</text>
</a>
</g>
</g>
<!-- Node0 -->
<g id="node2" class="node">
<title>Node0</title>
<g id="a_node2"><a xlink:href="classclang-tidy-cache_1_1ClangTidyCache.html" target="_top" xlink:title=" ">
<polygon fill="none" stroke="black" points="83,-294.5 83,-324.5 232,-324.5 232,-294.5 83,-294.5"/>
<text text-anchor="start" x="91" y="-312.5" font-family="Helvetica,sans-Serif" font-size="10.00">clang&#45;tidy&#45;cache.ClangTidy</text>
<text text-anchor="middle" x="157.5" y="-301.5" font-family="Helvetica,sans-Serif" font-size="10.00">Cache</text>
</a>
</g>
</g>
<!-- Node3&#45;&gt;Node0 -->
<g id="edge1" class="edge">
<title>Node3&#45;&gt;Node0</title>
<path fill="none" stroke="midnightblue" d="M28.63,-181.87C35.38,-208.87 51.32,-257.64 83,-285.5 86.93,-288.96 91.37,-291.92 96.07,-294.45"/>
<polygon fill="midnightblue" stroke="midnightblue" points="32.02,-181 26.35,-172.06 25.21,-182.59 32.02,-181"/>
</g>
<!-- Node5 -->
<g id="node3" class="node">
<title>Node5</title>
<g id="a_node3"><a xlink:href="classclang-tidy-cache_1_1ClangTidyCacheHash.html" target="_top" xlink:title=" ">
<polygon fill="none" stroke="black" points="83,-245.5 83,-275.5 232,-275.5 232,-245.5 83,-245.5"/>
<text text-anchor="start" x="91" y="-263.5" font-family="Helvetica,sans-Serif" font-size="10.00">clang&#45;tidy&#45;cache.ClangTidy</text>
<text text-anchor="middle" x="157.5" y="-252.5" font-family="Helvetica,sans-Serif" font-size="10.00">CacheHash</text>
</a>
</g>
</g>
<!-- Node3&#45;&gt;Node5 -->
<g id="edge2" class="edge">
<title>Node3&#45;&gt;Node5</title>
<path fill="none" stroke="midnightblue" d="M34.81,-181.03C45.02,-197.77 62.11,-221.94 83,-236.5 87.85,-239.88 93.2,-242.8 98.74,-245.33"/>
<polygon fill="midnightblue" stroke="midnightblue" points="37.7,-179.03 29.62,-172.17 31.65,-182.56 37.7,-179.03"/>
</g>
<!-- Node6 -->
<g id="node4" class="node">
<title>Node6</title>
<g id="a_node4"><a xlink:href="classclang-tidy-cache_1_1ClangTidyCacheOpts.html" target="_top" xlink:title=" ">
<polygon fill="none" stroke="black" points="83,-196.5 83,-226.5 232,-226.5 232,-196.5 83,-196.5"/>
<text text-anchor="start" x="91" y="-214.5" font-family="Helvetica,sans-Serif" font-size="10.00">clang&#45;tidy&#45;cache.ClangTidy</text>
<text text-anchor="middle" x="157.5" y="-203.5" font-family="Helvetica,sans-Serif" font-size="10.00">CacheOpts</text>
</a>
</g>
</g>
<!-- Node3&#45;&gt;Node6 -->
<g id="edge3" class="edge">
<title>Node3&#45;&gt;Node6</title>
<path fill="none" stroke="midnightblue" d="M55,-176.14C63.96,-179.98 73.81,-184.05 83,-187.5 91.17,-190.57 99.92,-193.63 108.45,-196.49"/>
<polygon fill="midnightblue" stroke="midnightblue" points="56.28,-172.88 45.71,-172.1 53.49,-179.3 56.28,-172.88"/>
</g>
<!-- Node7 -->
<g id="node5" class="node">
<title>Node7</title>
<g id="a_node5"><a xlink:href="classclang-tidy-cache_1_1ClangTidyLocalCache.html" target="_top" xlink:title=" ">
<polygon fill="none" stroke="black" points="83,-147.5 83,-177.5 232,-177.5 232,-147.5 83,-147.5"/>
<text text-anchor="start" x="91" y="-165.5" font-family="Helvetica,sans-Serif" font-size="10.00">clang&#45;tidy&#45;cache.ClangTidy</text>
<text text-anchor="middle" x="157.5" y="-154.5" font-family="Helvetica,sans-Serif" font-size="10.00">LocalCache</text>
</a>
</g>
</g>
<!-- Node3&#45;&gt;Node7 -->
<g id="edge4" class="edge">
<title>Node3&#45;&gt;Node7</title>
<path fill="none" stroke="midnightblue" d="M57.31,-162.5C65.15,-162.5 73.85,-162.5 82.73,-162.5"/>
<polygon fill="midnightblue" stroke="midnightblue" points="57.19,-159 47.19,-162.5 57.19,-166 57.19,-159"/>
</g>
<!-- Node8 -->
<g id="node6" class="node">
<title>Node8</title>
<g id="a_node6"><a xlink:href="classclang-tidy-cache_1_1ClangTidyRedisCache.html" target="_top" xlink:title=" ">
<polygon fill="none" stroke="black" points="83,-98.5 83,-128.5 232,-128.5 232,-98.5 83,-98.5"/>
<text text-anchor="start" x="91" y="-116.5" font-family="Helvetica,sans-Serif" font-size="10.00">clang&#45;tidy&#45;cache.ClangTidy</text>
<text text-anchor="middle" x="157.5" y="-105.5" font-family="Helvetica,sans-Serif" font-size="10.00">RedisCache</text>
</a>
</g>
</g>
<!-- Node3&#45;&gt;Node8 -->
<g id="edge5" class="edge">
<title>Node3&#45;&gt;Node8</title>
<path fill="none" stroke="midnightblue" d="M56.24,-149.07C64.88,-145.52 74.26,-141.78 83,-138.5 91.96,-135.14 101.6,-131.72 110.86,-128.54"/>
<polygon fill="midnightblue" stroke="midnightblue" points="54.77,-145.88 46.87,-152.94 57.45,-152.35 54.77,-145.88"/>
</g>
<!-- Node9 -->
<g id="node7" class="node">
<title>Node9</title>
<g id="a_node7"><a xlink:href="classclang-tidy-cache_1_1ClangTidyS3Cache.html" target="_top" xlink:title=" ">
<polygon fill="none" stroke="black" points="83,-49.5 83,-79.5 232,-79.5 232,-49.5 83,-49.5"/>
<text text-anchor="start" x="91" y="-67.5" font-family="Helvetica,sans-Serif" font-size="10.00">clang&#45;tidy&#45;cache.ClangTidy</text>
<text text-anchor="middle" x="157.5" y="-56.5" font-family="Helvetica,sans-Serif" font-size="10.00">S3Cache</text>
</a>
</g>
</g>
<!-- Node3&#45;&gt;Node9 -->
<g id="edge6" class="edge">
<title>Node3&#45;&gt;Node9</title>
<path fill="none" stroke="midnightblue" d="M35.25,-143.75C45.55,-127.3 62.55,-103.84 83,-89.5 88.41,-85.71 94.44,-82.45 100.65,-79.67"/>
<polygon fill="midnightblue" stroke="midnightblue" points="32.14,-142.12 29.97,-152.5 38.13,-145.74 32.14,-142.12"/>
</g>
<!-- Node10 -->
<g id="node8" class="node">
<title>Node10</title>
<g id="a_node8"><a xlink:href="classclang-tidy-cache_1_1ClangTidyServerCache.html" target="_top" xlink:title=" ">
<polygon fill="none" stroke="black" points="83,-0.5 83,-30.5 232,-30.5 232,-0.5 83,-0.5"/>
<text text-anchor="start" x="91" y="-18.5" font-family="Helvetica,sans-Serif" font-size="10.00">clang&#45;tidy&#45;cache.ClangTidy</text>
<text text-anchor="middle" x="157.5" y="-7.5" font-family="Helvetica,sans-Serif" font-size="10.00">ServerCache</text>
</a>
</g>
</g>
<!-- Node3&#45;&gt;Node10 -->
<g id="edge7" class="edge">
<title>Node3&#45;&gt;Node10</title>
<path fill="none" stroke="midnightblue" d="M28.83,-142.94C35.74,-116.14 51.81,-68.18 83,-40.5 87.34,-36.65 92.29,-33.39 97.53,-30.63"/>
<polygon fill="midnightblue" stroke="midnightblue" points="25.41,-142.17 26.47,-152.71 32.22,-143.81 25.41,-142.17"/>
</g>
</g>
</svg>
