<?xml version="1.0" encoding="UTF-8" standalone="no"?>
<!DOCTYPE svg PUBLIC "-//W3C//DTD SVG 1.1//EN"
 "http://www.w3.org/Graphics/SVG/1.1/DTD/svg11.dtd">
<!-- Generated by graphviz version 2.43.0 (0)
 -->
<!-- Title: Graphical Class Hierarchy Pages: 1 -->
<svg width="250pt" height="104pt"
 viewBox="0.00 0.00 250.00 104.00" xmlns="http://www.w3.org/2000/svg" xmlns:xlink="http://www.w3.org/1999/xlink">
<g id="graph0" class="graph" transform="scale(1 1) rotate(0) translate(4 100)">
<title>Graphical Class Hierarchy</title>
<!-- Node12 -->
<g id="node1" class="node">
<title>Node12</title>
<g id="a_node1"><a xlink:title=" ">
<polygon fill="none" stroke="#bfbfbf" points="0,-38.5 0,-57.5 76,-57.5 76,-38.5 0,-38.5"/>
<text text-anchor="middle" x="38" y="-45.5" font-family="Helvetica,sans-Serif" font-size="10.00">testing::Test</text>
</a>
</g>
</g>
<!-- Node0 -->
<g id="node2" class="node">
<title>Node0</title>
<g id="a_node2"><a xlink:href="classClangTidyWarningsTest.html" target="_top" xlink:title=" ">
<polygon fill="none" stroke="black" points="112,-76.5 112,-95.5 242,-95.5 242,-76.5 112,-76.5"/>
<text text-anchor="middle" x="177" y="-83.5" font-family="Helvetica,sans-Serif" font-size="10.00">ClangTidyWarningsTest</text>
</a>
</g>
</g>
<!-- Node12&#45;&gt;Node0 -->
<g id="edge1" class="edge">
<title>Node12&#45;&gt;Node0</title>
<path fill="none" stroke="midnightblue" d="M83.41,-60.32C102.23,-65.54 123.84,-71.53 141.44,-76.41"/>
<polygon fill="midnightblue" stroke="midnightblue" points="84.14,-56.89 73.57,-57.59 82.27,-63.63 84.14,-56.89"/>
</g>
<!-- Node14 -->
<g id="node3" class="node">
<title>Node14</title>
<g id="a_node3"><a xlink:href="classMyClassMockTest.html" target="_top" xlink:title=" ">
<polygon fill="none" stroke="black" points="125,-38.5 125,-57.5 229,-57.5 229,-38.5 125,-38.5"/>
<text text-anchor="middle" x="177" y="-45.5" font-family="Helvetica,sans-Serif" font-size="10.00">MyClassMockTest</text>
</a>
</g>
</g>
<!-- Node12&#45;&gt;Node14 -->
<g id="edge2" class="edge">
<title>Node12&#45;&gt;Node14</title>
<path fill="none" stroke="midnightblue" d="M86.23,-48C98.66,-48 112.12,-48 124.75,-48"/>
<polygon fill="midnightblue" stroke="midnightblue" points="86.07,-44.5 76.07,-48 86.07,-51.5 86.07,-44.5"/>
</g>
<!-- Node15 -->
<g id="node4" class="node">
<title>Node15</title>
<g id="a_node4"><a xlink:href="classMyClassTest.html" target="_top" xlink:title=" ">
<polygon fill="none" stroke="black" points="138.5,-0.5 138.5,-19.5 215.5,-19.5 215.5,-0.5 138.5,-0.5"/>
<text text-anchor="middle" x="177" y="-7.5" font-family="Helvetica,sans-Serif" font-size="10.00">MyClassTest</text>
</a>
</g>
</g>
<!-- Node12&#45;&gt;Node15 -->
<g id="edge3" class="edge">
<title>Node12&#45;&gt;Node15</title>
<path fill="none" stroke="midnightblue" d="M83.41,-35.68C102.23,-30.46 123.84,-24.47 141.44,-19.59"/>
<polygon fill="midnightblue" stroke="midnightblue" points="82.27,-32.37 73.57,-38.41 84.14,-39.11 82.27,-32.37"/>
</g>
</g>
</svg>
