<?xml version="1.0" encoding="UTF-8" standalone="no"?>
<!DOCTYPE svg PUBLIC "-//W3C//DTD SVG 1.1//EN"
 "http://www.w3.org/Graphics/SVG/1.1/DTD/svg11.dtd">
<!-- Generated by graphviz version 2.43.0 (0)
 -->
<!-- Title: src/Main.cpp Pages: 1 -->
<svg width="918pt" height="140pt"
 viewBox="0.00 0.00 917.50 140.00" xmlns="http://www.w3.org/2000/svg" xmlns:xlink="http://www.w3.org/1999/xlink">
<g id="graph0" class="graph" transform="scale(1 1) rotate(0) translate(4 136)">
<title>src/Main.cpp</title>
<!-- Node1 -->
<g id="node1" class="node">
<title>Node1</title>
<g id="a_node1"><a xlink:title=" ">
<polygon fill="#bfbfbf" stroke="black" points="343,-112.5 343,-131.5 421,-131.5 421,-112.5 343,-112.5"/>
<text text-anchor="middle" x="382" y="-119.5" font-family="Helvetica,sans-Serif" font-size="10.00">src/Main.cpp</text>
</a>
</g>
</g>
<!-- Node2 -->
<g id="node2" class="node">
<title>Node2</title>
<g id="a_node2"><a xlink:title=" ">
<polygon fill="none" stroke="#bfbfbf" points="0,-56.5 0,-75.5 68,-75.5 68,-56.5 0,-56.5"/>
<text text-anchor="middle" x="34" y="-63.5" font-family="Helvetica,sans-Serif" font-size="10.00">filesystem</text>
</a>
</g>
</g>
<!-- Node1&#45;&gt;Node2 -->
<g id="edge1" class="edge">
<title>Node1&#45;&gt;Node2</title>
<path fill="none" stroke="midnightblue" d="M342.88,-115.99C286.6,-108.62 179.31,-93.94 78.3,-76.15"/>
<polygon fill="midnightblue" stroke="midnightblue" points="78.69,-72.66 68.23,-74.36 77.47,-79.55 78.69,-72.66"/>
</g>
<!-- Node3 -->
<g id="node3" class="node">
<title>Node3</title>
<g id="a_node3"><a xlink:title=" ">
<polygon fill="none" stroke="#bfbfbf" points="86.5,-56.5 86.5,-75.5 141.5,-75.5 141.5,-56.5 86.5,-56.5"/>
<text text-anchor="middle" x="114" y="-63.5" font-family="Helvetica,sans-Serif" font-size="10.00">fstream</text>
</a>
</g>
</g>
<!-- Node1&#45;&gt;Node3 -->
<g id="edge2" class="edge">
<title>Node1&#45;&gt;Node3</title>
<path fill="none" stroke="midnightblue" d="M342.65,-113.91C298.56,-105.83 224.74,-91.94 151.68,-76.07"/>
<polygon fill="midnightblue" stroke="midnightblue" points="152.37,-72.64 141.85,-73.92 150.87,-79.47 152.37,-72.64"/>
</g>
<!-- Node4 -->
<g id="node4" class="node">
<title>Node4</title>
<g id="a_node4"><a xlink:title=" ">
<polygon fill="none" stroke="#bfbfbf" points="160,-56.5 160,-75.5 220,-75.5 220,-56.5 160,-56.5"/>
<text text-anchor="middle" x="190" y="-63.5" font-family="Helvetica,sans-Serif" font-size="10.00">iostream</text>
</a>
</g>
</g>
<!-- Node1&#45;&gt;Node4 -->
<g id="edge3" class="edge">
<title>Node1&#45;&gt;Node4</title>
<path fill="none" stroke="midnightblue" d="M351.58,-112.44C318.72,-103.2 266.22,-88.44 230.03,-78.26"/>
<polygon fill="midnightblue" stroke="midnightblue" points="230.85,-74.85 220.28,-75.52 228.96,-81.59 230.85,-74.85"/>
</g>
<!-- Node5 -->
<g id="node5" class="node">
<title>Node5</title>
<g id="a_node5"><a xlink:title=" ">
<polygon fill="none" stroke="#bfbfbf" points="238.5,-56.5 238.5,-75.5 317.5,-75.5 317.5,-56.5 238.5,-56.5"/>
<text text-anchor="middle" x="278" y="-63.5" font-family="Helvetica,sans-Serif" font-size="10.00">fmt/format.h</text>
</a>
</g>
</g>
<!-- Node1&#45;&gt;Node5 -->
<g id="edge4" class="edge">
<title>Node1&#45;&gt;Node5</title>
<path fill="none" stroke="midnightblue" d="M365.29,-112.32C348.69,-103.7 323,-90.36 303.78,-80.39"/>
<polygon fill="midnightblue" stroke="midnightblue" points="305.16,-77.16 294.67,-75.65 301.93,-83.37 305.16,-77.16"/>
</g>
<!-- Node6 -->
<g id="node6" class="node">
<title>Node6</title>
<g id="a_node6"><a xlink:title=" ">
<polygon fill="none" stroke="#bfbfbf" points="335.5,-56.5 335.5,-75.5 428.5,-75.5 428.5,-56.5 335.5,-56.5"/>
<text text-anchor="middle" x="382" y="-63.5" font-family="Helvetica,sans-Serif" font-size="10.00">spdlog/spdlog.h</text>
</a>
</g>
</g>
<!-- Node1&#45;&gt;Node6 -->
<g id="edge5" class="edge">
<title>Node1&#45;&gt;Node6</title>
<path fill="none" stroke="midnightblue" d="M382,-112.08C382,-105.01 382,-94.86 382,-85.99"/>
<polygon fill="midnightblue" stroke="midnightblue" points="385.5,-85.75 382,-75.75 378.5,-85.75 385.5,-85.75"/>
</g>
<!-- Node7 -->
<g id="node7" class="node">
<title>Node7</title>
<g id="a_node7"><a xlink:title=" ">
<polygon fill="none" stroke="#bfbfbf" points="446.5,-56.5 446.5,-75.5 521.5,-75.5 521.5,-56.5 446.5,-56.5"/>
<text text-anchor="middle" x="484" y="-63.5" font-family="Helvetica,sans-Serif" font-size="10.00">cxxopts.hpp</text>
</a>
</g>
</g>
<!-- Node1&#45;&gt;Node7 -->
<g id="edge6" class="edge">
<title>Node1&#45;&gt;Node7</title>
<path fill="none" stroke="midnightblue" d="M398.39,-112.32C414.67,-103.7 439.87,-90.36 458.72,-80.39"/>
<polygon fill="midnightblue" stroke="midnightblue" points="460.45,-83.43 467.65,-75.65 457.18,-77.24 460.45,-83.43"/>
</g>
<!-- Node8 -->
<g id="node8" class="node">
<title>Node8</title>
<g id="a_node8"><a xlink:title=" ">
<polygon fill="none" stroke="#bfbfbf" points="540,-56.5 540,-75.5 650,-75.5 650,-56.5 540,-56.5"/>
<text text-anchor="middle" x="595" y="-63.5" font-family="Helvetica,sans-Serif" font-size="10.00">nlohmann/json.hpp</text>
</a>
</g>
</g>
<!-- Node1&#45;&gt;Node8 -->
<g id="edge7" class="edge">
<title>Node1&#45;&gt;Node8</title>
<path fill="none" stroke="midnightblue" d="M415.75,-112.44C452.52,-103.12 511.45,-88.18 551.62,-78"/>
<polygon fill="midnightblue" stroke="midnightblue" points="552.57,-81.37 561.41,-75.52 550.85,-74.58 552.57,-81.37"/>
</g>
<!-- Node9 -->
<g id="node9" class="node">
<title>Node9</title>
<g id="a_node9"><a xlink:href="ClangTidyWarnings_8h.html" target="_top" xlink:title=" ">
<polygon fill="none" stroke="black" points="668.5,-56.5 668.5,-75.5 787.5,-75.5 787.5,-56.5 668.5,-56.5"/>
<text text-anchor="middle" x="728" y="-63.5" font-family="Helvetica,sans-Serif" font-size="10.00">ClangTidyWarnings.h</text>
</a>
</g>
</g>
<!-- Node1&#45;&gt;Node9 -->
<g id="edge8" class="edge">
<title>Node1&#45;&gt;Node9</title>
<path fill="none" stroke="midnightblue" d="M421.02,-114.91C479.89,-105.72 592.1,-88.21 663.33,-77.09"/>
<polygon fill="midnightblue" stroke="midnightblue" points="664.19,-80.5 673.53,-75.5 663.11,-73.59 664.19,-80.5"/>
</g>
<!-- Node10 -->
<g id="node10" class="node">
<title>Node10</title>
<g id="a_node10"><a xlink:href="config_8h.html" target="_top" xlink:title=" ">
<polygon fill="none" stroke="black" points="805.5,-56.5 805.5,-75.5 860.5,-75.5 860.5,-56.5 805.5,-56.5"/>
<text text-anchor="middle" x="833" y="-63.5" font-family="Helvetica,sans-Serif" font-size="10.00">config.h</text>
</a>
</g>
</g>
<!-- Node1&#45;&gt;Node10 -->
<g id="edge9" class="edge">
<title>Node1&#45;&gt;Node10</title>
<path fill="none" stroke="midnightblue" d="M421.16,-118.55C493.34,-113.65 652.34,-101.04 794.94,-76.17"/>
<polygon fill="midnightblue" stroke="midnightblue" points="795.94,-79.55 805.17,-74.36 794.72,-72.65 795.94,-79.55"/>
</g>
<!-- Node11 -->
<g id="node11" class="node">
<title>Node11</title>
<g id="a_node11"><a xlink:title=" ">
<polygon fill="none" stroke="#bfbfbf" points="768,-0.5 768,-19.5 818,-19.5 818,-0.5 768,-0.5"/>
<text text-anchor="middle" x="793" y="-7.5" font-family="Helvetica,sans-Serif" font-size="10.00">cstdint</text>
</a>
</g>
</g>
<!-- Node10&#45;&gt;Node11 -->
<g id="edge10" class="edge">
<title>Node10&#45;&gt;Node11</title>
<path fill="none" stroke="midnightblue" d="M826.39,-56.08C820.74,-48.46 812.46,-37.26 805.55,-27.94"/>
<polygon fill="midnightblue" stroke="midnightblue" points="808.25,-25.7 799.48,-19.75 802.62,-29.87 808.25,-25.7"/>
</g>
<!-- Node12 -->
<g id="node12" class="node">
<title>Node12</title>
<g id="a_node12"><a xlink:title=" ">
<polygon fill="none" stroke="#bfbfbf" points="836.5,-0.5 836.5,-19.5 909.5,-19.5 909.5,-0.5 836.5,-0.5"/>
<text text-anchor="middle" x="873" y="-7.5" font-family="Helvetica,sans-Serif" font-size="10.00">string_view</text>
</a>
</g>
</g>
<!-- Node10&#45;&gt;Node12 -->
<g id="edge11" class="edge">
<title>Node10&#45;&gt;Node12</title>
<path fill="none" stroke="midnightblue" d="M839.61,-56.08C845.26,-48.46 853.54,-37.26 860.45,-27.94"/>
<polygon fill="midnightblue" stroke="midnightblue" points="863.38,-29.87 866.52,-19.75 857.75,-25.7 863.38,-29.87"/>
</g>
</g>
</svg>
