<?xml version="1.0" encoding="UTF-8" standalone="no"?>
<!DOCTYPE svg PUBLIC "-//W3C//DTD SVG 1.1//EN"
 "http://www.w3.org/Graphics/SVG/1.1/DTD/svg11.dtd">
<!-- Generated by graphviz version 2.43.0 (0)
 -->
<!-- Title: src/Main.cpp Pages: 1 -->
<svg width="918pt" height="140pt"
 viewBox="0.00 0.00 918.00 140.00" xmlns="http://www.w3.org/2000/svg" xmlns:xlink="http://www.w3.org/1999/xlink">
<g id="graph0" class="graph" transform="scale(1 1) rotate(0) translate(4 136)">
<title>src/Main.cpp</title>
<!-- Node1 -->
<g id="node1" class="node">
<title>Node1</title>
<g id="a_node1"><a xlink:title=" ">
<polygon fill="#bfbfbf" stroke="black" points="376.5,-112.5 376.5,-131.5 454.5,-131.5 454.5,-112.5 376.5,-112.5"/>
<text text-anchor="middle" x="415.5" y="-119.5" font-family="Helvetica,sans-Serif" font-size="10.00">src/Main.cpp</text>
</a>
</g>
</g>
<!-- Node2 -->
<g id="node2" class="node">
<title>Node2</title>
<g id="a_node2"><a xlink:href="ClangTidyWarnings_8h.html" target="_top" xlink:title=" ">
<polygon fill="none" stroke="black" points="0,-56.5 0,-75.5 119,-75.5 119,-56.5 0,-56.5"/>
<text text-anchor="middle" x="59.5" y="-63.5" font-family="Helvetica,sans-Serif" font-size="10.00">ClangTidyWarnings.h</text>
</a>
</g>
</g>
<!-- Node1&#45;&gt;Node2 -->
<g id="edge1" class="edge">
<title>Node1&#45;&gt;Node2</title>
<path fill="none" stroke="midnightblue" d="M376.38,-115.07C316.01,-105.91 199.39,-88.22 125.71,-77.04"/>
<polygon fill="midnightblue" stroke="midnightblue" points="126.02,-73.55 115.61,-75.51 124.97,-80.47 126.02,-73.55"/>
</g>
<!-- Node3 -->
<g id="node3" class="node">
<title>Node3</title>
<g id="a_node3"><a xlink:title=" ">
<polygon fill="none" stroke="#bfbfbf" points="137.5,-56.5 137.5,-75.5 205.5,-75.5 205.5,-56.5 137.5,-56.5"/>
<text text-anchor="middle" x="171.5" y="-63.5" font-family="Helvetica,sans-Serif" font-size="10.00">filesystem</text>
</a>
</g>
</g>
<!-- Node1&#45;&gt;Node3 -->
<g id="edge2" class="edge">
<title>Node1&#45;&gt;Node3</title>
<path fill="none" stroke="midnightblue" d="M376.84,-112.44C332.99,-102.74 261.62,-86.95 215.63,-76.77"/>
<polygon fill="midnightblue" stroke="midnightblue" points="216.17,-73.3 205.65,-74.56 214.66,-80.14 216.17,-73.3"/>
</g>
<!-- Node4 -->
<g id="node4" class="node">
<title>Node4</title>
<g id="a_node4"><a xlink:title=" ">
<polygon fill="none" stroke="#bfbfbf" points="224,-56.5 224,-75.5 279,-75.5 279,-56.5 224,-56.5"/>
<text text-anchor="middle" x="251.5" y="-63.5" font-family="Helvetica,sans-Serif" font-size="10.00">fstream</text>
</a>
</g>
</g>
<!-- Node1&#45;&gt;Node4 -->
<g id="edge3" class="edge">
<title>Node1&#45;&gt;Node4</title>
<path fill="none" stroke="midnightblue" d="M389.51,-112.44C361.8,-103.32 317.75,-88.81 286.88,-78.65"/>
<polygon fill="midnightblue" stroke="midnightblue" points="287.96,-75.32 277.36,-75.52 285.77,-81.97 287.96,-75.32"/>
</g>
<!-- Node5 -->
<g id="node5" class="node">
<title>Node5</title>
<g id="a_node5"><a xlink:title=" ">
<polygon fill="none" stroke="#bfbfbf" points="297.5,-56.5 297.5,-75.5 357.5,-75.5 357.5,-56.5 297.5,-56.5"/>
<text text-anchor="middle" x="327.5" y="-63.5" font-family="Helvetica,sans-Serif" font-size="10.00">iostream</text>
</a>
</g>
</g>
<!-- Node1&#45;&gt;Node5 -->
<g id="edge4" class="edge">
<title>Node1&#45;&gt;Node5</title>
<path fill="none" stroke="midnightblue" d="M401.36,-112.32C387.63,-103.9 366.56,-90.97 350.44,-81.07"/>
<polygon fill="midnightblue" stroke="midnightblue" points="351.96,-77.9 341.6,-75.65 348.3,-83.87 351.96,-77.9"/>
</g>
<!-- Node6 -->
<g id="node6" class="node">
<title>Node6</title>
<g id="a_node6"><a xlink:title=" ">
<polygon fill="none" stroke="#bfbfbf" points="376,-56.5 376,-75.5 455,-75.5 455,-56.5 376,-56.5"/>
<text text-anchor="middle" x="415.5" y="-63.5" font-family="Helvetica,sans-Serif" font-size="10.00">fmt/format.h</text>
</a>
</g>
</g>
<!-- Node1&#45;&gt;Node6 -->
<g id="edge5" class="edge">
<title>Node1&#45;&gt;Node6</title>
<path fill="none" stroke="midnightblue" d="M415.5,-112.08C415.5,-105.01 415.5,-94.86 415.5,-85.99"/>
<polygon fill="midnightblue" stroke="midnightblue" points="419,-85.75 415.5,-75.75 412,-85.75 419,-85.75"/>
</g>
<!-- Node7 -->
<g id="node7" class="node">
<title>Node7</title>
<g id="a_node7"><a xlink:title=" ">
<polygon fill="none" stroke="#bfbfbf" points="473,-56.5 473,-75.5 566,-75.5 566,-56.5 473,-56.5"/>
<text text-anchor="middle" x="519.5" y="-63.5" font-family="Helvetica,sans-Serif" font-size="10.00">spdlog/spdlog.h</text>
</a>
</g>
</g>
<!-- Node1&#45;&gt;Node7 -->
<g id="edge6" class="edge">
<title>Node1&#45;&gt;Node7</title>
<path fill="none" stroke="midnightblue" d="M432.21,-112.32C448.81,-103.7 474.5,-90.36 493.72,-80.39"/>
<polygon fill="midnightblue" stroke="midnightblue" points="495.57,-83.37 502.83,-75.65 492.34,-77.16 495.57,-83.37"/>
</g>
<!-- Node8 -->
<g id="node8" class="node">
<title>Node8</title>
<g id="a_node8"><a xlink:title=" ">
<polygon fill="none" stroke="#bfbfbf" points="584,-56.5 584,-75.5 659,-75.5 659,-56.5 584,-56.5"/>
<text text-anchor="middle" x="621.5" y="-63.5" font-family="Helvetica,sans-Serif" font-size="10.00">cxxopts.hpp</text>
</a>
</g>
</g>
<!-- Node1&#45;&gt;Node8 -->
<g id="edge7" class="edge">
<title>Node1&#45;&gt;Node8</title>
<path fill="none" stroke="midnightblue" d="M448.14,-112.44C483.55,-103.16 540.21,-88.31 579.05,-78.13"/>
<polygon fill="midnightblue" stroke="midnightblue" points="580.23,-81.44 589.01,-75.52 578.45,-74.67 580.23,-81.44"/>
</g>
<!-- Node9 -->
<g id="node9" class="node">
<title>Node9</title>
<g id="a_node9"><a xlink:title=" ">
<polygon fill="none" stroke="#bfbfbf" points="677.5,-56.5 677.5,-75.5 787.5,-75.5 787.5,-56.5 677.5,-56.5"/>
<text text-anchor="middle" x="732.5" y="-63.5" font-family="Helvetica,sans-Serif" font-size="10.00">nlohmann/json.hpp</text>
</a>
</g>
</g>
<!-- Node1&#45;&gt;Node9 -->
<g id="edge8" class="edge">
<title>Node1&#45;&gt;Node9</title>
<path fill="none" stroke="midnightblue" d="M454.69,-114.32C509.25,-105.03 608.59,-88.11 672.51,-77.22"/>
<polygon fill="midnightblue" stroke="midnightblue" points="673.18,-80.66 682.45,-75.53 672,-73.76 673.18,-80.66"/>
</g>
<!-- Node10 -->
<g id="node10" class="node">
<title>Node10</title>
<g id="a_node10"><a xlink:href="config_8h.html" target="_top" xlink:title=" ">
<polygon fill="none" stroke="black" points="806,-56.5 806,-75.5 861,-75.5 861,-56.5 806,-56.5"/>
<text text-anchor="middle" x="833.5" y="-63.5" font-family="Helvetica,sans-Serif" font-size="10.00">config.h</text>
</a>
</g>
</g>
<!-- Node1&#45;&gt;Node10 -->
<g id="edge9" class="edge">
<title>Node1&#45;&gt;Node10</title>
<path fill="none" stroke="midnightblue" d="M454.67,-117.95C522.22,-112.35 665.11,-99 795.53,-75.97"/>
<polygon fill="midnightblue" stroke="midnightblue" points="796.47,-79.35 805.7,-74.15 795.24,-72.46 796.47,-79.35"/>
</g>
<!-- Node11 -->
<g id="node11" class="node">
<title>Node11</title>
<g id="a_node11"><a xlink:title=" ">
<polygon fill="none" stroke="#bfbfbf" points="768.5,-0.5 768.5,-19.5 818.5,-19.5 818.5,-0.5 768.5,-0.5"/>
<text text-anchor="middle" x="793.5" y="-7.5" font-family="Helvetica,sans-Serif" font-size="10.00">cstdint</text>
</a>
</g>
</g>
<!-- Node10&#45;&gt;Node11 -->
<g id="edge10" class="edge">
<title>Node10&#45;&gt;Node11</title>
<path fill="none" stroke="midnightblue" d="M826.89,-56.08C821.24,-48.46 812.96,-37.26 806.05,-27.94"/>
<polygon fill="midnightblue" stroke="midnightblue" points="808.75,-25.7 799.98,-19.75 803.12,-29.87 808.75,-25.7"/>
</g>
<!-- Node12 -->
<g id="node12" class="node">
<title>Node12</title>
<g id="a_node12"><a xlink:title=" ">
<polygon fill="none" stroke="#bfbfbf" points="837,-0.5 837,-19.5 910,-19.5 910,-0.5 837,-0.5"/>
<text text-anchor="middle" x="873.5" y="-7.5" font-family="Helvetica,sans-Serif" font-size="10.00">string_view</text>
</a>
</g>
</g>
<!-- Node10&#45;&gt;Node12 -->
<g id="edge11" class="edge">
<title>Node10&#45;&gt;Node12</title>
<path fill="none" stroke="midnightblue" d="M840.11,-56.08C845.76,-48.46 854.04,-37.26 860.95,-27.94"/>
<polygon fill="midnightblue" stroke="midnightblue" points="863.88,-29.87 867.02,-19.75 858.25,-25.7 863.88,-29.87"/>
</g>
</g>
</svg>
