<?xml version="1.0" encoding="UTF-8" standalone="no"?>
<!DOCTYPE svg PUBLIC "-//W3C//DTD SVG 1.1//EN"
 "http://www.w3.org/Graphics/SVG/1.1/DTD/svg11.dtd">
<!-- Generated by graphviz version 2.43.0 (0)
 -->
<!-- Title: clang&#45;tidy&#45;cache.main Pages: 1 -->
<svg width="621pt" height="112pt"
 viewBox="0.00 0.00 621.00 112.00" xmlns="http://www.w3.org/2000/svg" xmlns:xlink="http://www.w3.org/1999/xlink">
<g id="graph0" class="graph" transform="scale(1 1) rotate(0) translate(4 108)">
<title>clang&#45;tidy&#45;cache.main</title>
<!-- Node1 -->
<g id="node1" class="node">
<title>Node1</title>
<g id="a_node1"><a xlink:title=" ">
<polygon fill="#bfbfbf" stroke="black" points="0,-54 0,-73 125,-73 125,-54 0,-54"/>
<text text-anchor="middle" x="62.5" y="-61" font-family="Helvetica,sans-Serif" font-size="10.00">clang&#45;tidy&#45;cache.main</text>
</a>
</g>
</g>
<!-- Node2 -->
<g id="node2" class="node">
<title>Node2</title>
<g id="a_node2"><a xlink:href="namespaceclang-tidy-cache.html#a9b3db07143732e04693695ee124de392" target="_top" xlink:title=" ">
<polygon fill="none" stroke="black" points="161,-73.5 161,-103.5 284,-103.5 284,-73.5 161,-73.5"/>
<text text-anchor="start" x="169" y="-91.5" font-family="Helvetica,sans-Serif" font-size="10.00">clang&#45;tidy&#45;cache.print</text>
<text text-anchor="middle" x="222.5" y="-80.5" font-family="Helvetica,sans-Serif" font-size="10.00">_stats</text>
</a>
</g>
</g>
<!-- Node1&#45;&gt;Node2 -->
<g id="edge1" class="edge">
<title>Node1&#45;&gt;Node2</title>
<path fill="none" stroke="midnightblue" d="M123.68,-73.02C132.55,-74.43 141.76,-75.88 150.82,-77.32"/>
<polygon fill="midnightblue" stroke="midnightblue" points="150.54,-80.81 160.96,-78.92 151.63,-73.9 150.54,-80.81"/>
</g>
<!-- Node3 -->
<g id="node3" class="node">
<title>Node3</title>
<g id="a_node3"><a xlink:href="namespaceclang-tidy-cache.html#af31992d7c253bfc80a3a292a71b7f8e4" target="_top" xlink:title=" ">
<polygon fill="none" stroke="black" points="164.5,-24.5 164.5,-54.5 280.5,-54.5 280.5,-24.5 164.5,-24.5"/>
<text text-anchor="start" x="172.5" y="-42.5" font-family="Helvetica,sans-Serif" font-size="10.00">clang&#45;tidy&#45;cache.run</text>
<text text-anchor="middle" x="222.5" y="-31.5" font-family="Helvetica,sans-Serif" font-size="10.00">_clang_tidy_cached</text>
</a>
</g>
</g>
<!-- Node1&#45;&gt;Node3 -->
<g id="edge2" class="edge">
<title>Node1&#45;&gt;Node3</title>
<path fill="none" stroke="midnightblue" d="M125.04,-54.15C134.62,-52.7 144.56,-51.19 154.26,-49.71"/>
<polygon fill="midnightblue" stroke="midnightblue" points="154.9,-53.16 164.26,-48.19 153.85,-46.24 154.9,-53.16"/>
</g>
<!-- Node4 -->
<g id="node4" class="node">
<title>Node4</title>
<g id="a_node4"><a xlink:href="namespaceclang-tidy-cache.html#a540f1c62d93828382ab1ae6805dff4e0" target="_top" xlink:title=" ">
<polygon fill="none" stroke="black" points="320,-24.5 320,-54.5 444,-54.5 444,-24.5 320,-24.5"/>
<text text-anchor="start" x="328" y="-42.5" font-family="Helvetica,sans-Serif" font-size="10.00">clang&#45;tidy&#45;cache.hash</text>
<text text-anchor="middle" x="382" y="-31.5" font-family="Helvetica,sans-Serif" font-size="10.00">_inputs</text>
</a>
</g>
</g>
<!-- Node3&#45;&gt;Node4 -->
<g id="edge3" class="edge">
<title>Node3&#45;&gt;Node4</title>
<path fill="none" stroke="midnightblue" d="M280.81,-39.5C290.21,-39.5 300.05,-39.5 309.74,-39.5"/>
<polygon fill="midnightblue" stroke="midnightblue" points="309.75,-43 319.75,-39.5 309.75,-36 309.75,-43"/>
</g>
<!-- Node5 -->
<g id="node5" class="node">
<title>Node5</title>
<g id="a_node5"><a xlink:href="namespaceclang-tidy-cache.html#a2268d655c464a7275ef7d34da3ca3a6b" target="_top" xlink:title=" ">
<polygon fill="none" stroke="black" points="487,-49.5 487,-79.5 606,-79.5 606,-49.5 487,-49.5"/>
<text text-anchor="start" x="495" y="-67.5" font-family="Helvetica,sans-Serif" font-size="10.00">clang&#45;tidy&#45;cache.find</text>
<text text-anchor="middle" x="546.5" y="-56.5" font-family="Helvetica,sans-Serif" font-size="10.00">_ct_config</text>
</a>
</g>
</g>
<!-- Node4&#45;&gt;Node5 -->
<g id="edge4" class="edge">
<title>Node4&#45;&gt;Node5</title>
<path fill="none" stroke="midnightblue" d="M444.43,-48.95C454.99,-50.58 466.02,-52.27 476.76,-53.92"/>
<polygon fill="midnightblue" stroke="midnightblue" points="476.52,-57.43 486.93,-55.49 477.58,-50.51 476.52,-57.43"/>
</g>
<!-- Node6 -->
<g id="node6" class="node">
<title>Node6</title>
<g id="a_node6"><a xlink:href="namespaceclang-tidy-cache.html#a3f5f2005467ee5002361998ecd6d3e9b" target="_top" xlink:title=" ">
<polygon fill="none" stroke="black" points="480,-0.5 480,-30.5 613,-30.5 613,-0.5 480,-0.5"/>
<text text-anchor="start" x="488" y="-18.5" font-family="Helvetica,sans-Serif" font-size="10.00">clang&#45;tidy&#45;cache.source</text>
<text text-anchor="middle" x="546.5" y="-7.5" font-family="Helvetica,sans-Serif" font-size="10.00">_file_changed</text>
</a>
</g>
</g>
<!-- Node4&#45;&gt;Node6 -->
<g id="edge5" class="edge">
<title>Node4&#45;&gt;Node6</title>
<path fill="none" stroke="midnightblue" d="M444.43,-30.43C452.77,-29.2 461.4,-27.92 469.94,-26.66"/>
<polygon fill="midnightblue" stroke="midnightblue" points="470.53,-30.11 479.91,-25.19 469.51,-23.19 470.53,-30.11"/>
</g>
</g>
</svg>
