<?xml version="1.0" encoding="UTF-8" standalone="no"?>
<!DOCTYPE svg PUBLIC "-//W3C//DTD SVG 1.1//EN"
 "http://www.w3.org/Graphics/SVG/1.1/DTD/svg11.dtd">
<!-- Generated by graphviz version 2.43.0 (0)
 -->
<!-- Title: clang&#45;tidy&#45;cache.source_file_changed Pages: 1 -->
<svg width="614pt" height="39pt"
 viewBox="0.00 0.00 614.00 39.00" xmlns="http://www.w3.org/2000/svg" xmlns:xlink="http://www.w3.org/1999/xlink">
<g id="graph0" class="graph" transform="scale(1 1) rotate(0) translate(4 35)">
<title>clang&#45;tidy&#45;cache.source_file_changed</title>
<!-- Node1 -->
<g id="node1" class="node">
<title>Node1</title>
<g id="a_node1"><a xlink:title=" ">
<polygon fill="#bfbfbf" stroke="black" points="473,-0.5 473,-30.5 606,-30.5 606,-0.5 473,-0.5"/>
<text text-anchor="start" x="481" y="-18.5" font-family="Helvetica,sans-Serif" font-size="10.00">clang&#45;tidy&#45;cache.source</text>
<text text-anchor="middle" x="539.5" y="-7.5" font-family="Helvetica,sans-Serif" font-size="10.00">_file_changed</text>
</a>
</g>
</g>
<!-- Node2 -->
<g id="node2" class="node">
<title>Node2</title>
<g id="a_node2"><a xlink:href="namespaceclang-tidy-cache.html#a540f1c62d93828382ab1ae6805dff4e0" target="_top" xlink:title=" ">
<polygon fill="none" stroke="black" points="313,-0.5 313,-30.5 437,-30.5 437,-0.5 313,-0.5"/>
<text text-anchor="start" x="321" y="-18.5" font-family="Helvetica,sans-Serif" font-size="10.00">clang&#45;tidy&#45;cache.hash</text>
<text text-anchor="middle" x="375" y="-7.5" font-family="Helvetica,sans-Serif" font-size="10.00">_inputs</text>
</a>
</g>
</g>
<!-- Node1&#45;&gt;Node2 -->
<g id="edge1" class="edge">
<title>Node1&#45;&gt;Node2</title>
<path fill="none" stroke="midnightblue" d="M462.83,-15.5C454.22,-15.5 445.53,-15.5 437.14,-15.5"/>
<polygon fill="midnightblue" stroke="midnightblue" points="462.87,-19 472.87,-15.5 462.87,-12 462.87,-19"/>
</g>
<!-- Node3 -->
<g id="node3" class="node">
<title>Node3</title>
<g id="a_node3"><a xlink:href="namespaceclang-tidy-cache.html#af31992d7c253bfc80a3a292a71b7f8e4" target="_top" xlink:title=" ">
<polygon fill="none" stroke="black" points="161,-0.5 161,-30.5 277,-30.5 277,-0.5 161,-0.5"/>
<text text-anchor="start" x="169" y="-18.5" font-family="Helvetica,sans-Serif" font-size="10.00">clang&#45;tidy&#45;cache.run</text>
<text text-anchor="middle" x="219" y="-7.5" font-family="Helvetica,sans-Serif" font-size="10.00">_clang_tidy_cached</text>
</a>
</g>
</g>
<!-- Node2&#45;&gt;Node3 -->
<g id="edge2" class="edge">
<title>Node2&#45;&gt;Node3</title>
<path fill="none" stroke="midnightblue" d="M302.69,-15.5C294.11,-15.5 285.43,-15.5 277.09,-15.5"/>
<polygon fill="midnightblue" stroke="midnightblue" points="302.69,-19 312.69,-15.5 302.69,-12 302.69,-19"/>
</g>
<!-- Node4 -->
<g id="node4" class="node">
<title>Node4</title>
<g id="a_node4"><a xlink:href="namespaceclang-tidy-cache.html#ae5a9360827a85a9471eba9bd0e140848" target="_top" xlink:title=" ">
<polygon fill="none" stroke="black" points="0,-6 0,-25 125,-25 125,-6 0,-6"/>
<text text-anchor="middle" x="62.5" y="-13" font-family="Helvetica,sans-Serif" font-size="10.00">clang&#45;tidy&#45;cache.main</text>
</a>
</g>
</g>
<!-- Node3&#45;&gt;Node4 -->
<g id="edge3" class="edge">
<title>Node3&#45;&gt;Node4</title>
<path fill="none" stroke="midnightblue" d="M150.63,-15.5C142.12,-15.5 133.44,-15.5 125.03,-15.5"/>
<polygon fill="midnightblue" stroke="midnightblue" points="150.91,-19 160.91,-15.5 150.91,-12 150.91,-19"/>
</g>
</g>
</svg>
