<?xml version="1.0" encoding="UTF-8" standalone="no"?>
<!DOCTYPE svg PUBLIC "-//W3C//DTD SVG 1.1//EN"
 "http://www.w3.org/Graphics/SVG/1.1/DTD/svg11.dtd">
<!-- Generated by graphviz version 2.43.0 (0)
 -->
<!-- Title: clang&#45;tidy&#45;cache.hash_inputs Pages: 1 -->
<svg width="301pt" height="88pt"
 viewBox="0.00 0.00 301.00 88.00" xmlns="http://www.w3.org/2000/svg" xmlns:xlink="http://www.w3.org/1999/xlink">
<g id="graph0" class="graph" transform="scale(1 1) rotate(0) translate(4 84)">
<title>clang&#45;tidy&#45;cache.hash_inputs</title>
<!-- Node1 -->
<g id="node1" class="node">
<title>Node1</title>
<g id="a_node1"><a xlink:title=" ">
<polygon fill="#bfbfbf" stroke="black" points="0,-24.5 0,-54.5 124,-54.5 124,-24.5 0,-24.5"/>
<text text-anchor="start" x="8" y="-42.5" font-family="Helvetica,sans-Serif" font-size="10.00">clang&#45;tidy&#45;cache.hash</text>
<text text-anchor="middle" x="62" y="-31.5" font-family="Helvetica,sans-Serif" font-size="10.00">_inputs</text>
</a>
</g>
</g>
<!-- Node2 -->
<g id="node2" class="node">
<title>Node2</title>
<g id="a_node2"><a xlink:href="namespaceclang-tidy-cache.html#a2268d655c464a7275ef7d34da3ca3a6b" target="_top" xlink:title=" ">
<polygon fill="none" stroke="black" points="167,-49.5 167,-79.5 286,-79.5 286,-49.5 167,-49.5"/>
<text text-anchor="start" x="175" y="-67.5" font-family="Helvetica,sans-Serif" font-size="10.00">clang&#45;tidy&#45;cache.find</text>
<text text-anchor="middle" x="226.5" y="-56.5" font-family="Helvetica,sans-Serif" font-size="10.00">_ct_config</text>
</a>
</g>
</g>
<!-- Node1&#45;&gt;Node2 -->
<g id="edge1" class="edge">
<title>Node1&#45;&gt;Node2</title>
<path fill="none" stroke="midnightblue" d="M124.43,-48.95C134.99,-50.58 146.02,-52.27 156.76,-53.92"/>
<polygon fill="midnightblue" stroke="midnightblue" points="156.52,-57.43 166.93,-55.49 157.58,-50.51 156.52,-57.43"/>
</g>
<!-- Node3 -->
<g id="node3" class="node">
<title>Node3</title>
<g id="a_node3"><a xlink:href="namespaceclang-tidy-cache.html#a3f5f2005467ee5002361998ecd6d3e9b" target="_top" xlink:title=" ">
<polygon fill="none" stroke="black" points="160,-0.5 160,-30.5 293,-30.5 293,-0.5 160,-0.5"/>
<text text-anchor="start" x="168" y="-18.5" font-family="Helvetica,sans-Serif" font-size="10.00">clang&#45;tidy&#45;cache.source</text>
<text text-anchor="middle" x="226.5" y="-7.5" font-family="Helvetica,sans-Serif" font-size="10.00">_file_changed</text>
</a>
</g>
</g>
<!-- Node1&#45;&gt;Node3 -->
<g id="edge2" class="edge">
<title>Node1&#45;&gt;Node3</title>
<path fill="none" stroke="midnightblue" d="M124.43,-30.43C132.77,-29.2 141.4,-27.92 149.94,-26.66"/>
<polygon fill="midnightblue" stroke="midnightblue" points="150.53,-30.11 159.91,-25.19 149.51,-23.19 150.53,-30.11"/>
</g>
</g>
</svg>
